# xmcd CD database file
#
# Track frame offsets:
#	150
#	13822
#	23770
#	34043
#	47140
#	57249
#	68285
#	83231
#	93506
#	105095
#	116233
#	129246
#	139266
#	149644
#	166204
#	174778
#	183392
#	193611
#	206288
#	217295
#	229588
#	238649
#	249083
#	258721
#
# Disc length: 3592 seconds
#
# Revision: 1
# Processed by: cddbd v1.5.2PL0 Copyright (c) Steve Scherf et al.
# Submitted via: CDex 1.70beta2
#
DISCID=480e0618
DTITLE=Pride,Charley - Pride Of Country Music - Make Mine Country
DYEAR=2015
DGENRE=Country
TTITLE0=In The Middle Of Nowhere
TTITLE1=The Last Thing On My Mind
TTITLE2=Just Between You And Me
TTITLE3=Apartment No.9
TTITLE4=Spell Of The Freight Train
TTITLE5=I Know One
TTITLE6=I'm Not The Boy I Used To Be
TTITLE7=A Good Woman's Love
TTITLE8=Silence
TTITLE9=Take Me Home
TTITLE10=Touch My Heart
TTITLE11=Best Banjo Picker
TTITLE12=Now I Can Live Again
TTITLE13=A Word Or Two Too Mary
TTITLE14=If You Should Come Back Today
TTITLE15=Guess Things Happen That Way
TTITLE16=Before The Next Teardrop Falls
TTITLE17=Banks Of The Ohaio
TTITLE18=Wings Of A Dove
TTITLE19=A Girl I Used To Know
TTITLE20=Lie To Me
TTITLE21=Why Didn't I Think Of That
TTITLE22=Above And Beyond
TTITLE23=Baby Is Gone
EXTD=YEAR: 2015
EXTT0=
EXTT1=
EXTT2=
EXTT3=
EXTT4=
EXTT5=
EXTT6=
EXTT7=
EXTT8=
EXTT9=
EXTT10=
EXTT11=
EXTT12=
EXTT13=
EXTT14=
EXTT15=
EXTT16=
EXTT17=
EXTT18=
EXTT19=
EXTT20=
EXTT21=
EXTT22=
EXTT23=
PLAYORDER=
